<svg width="50" height="50" viewBox="0 0 50 50" fill="none" xmlns="http://www.w3.org/2000/svg">
<circle cx="25" cy="25" r="25" fill="#727272"/>
<path d="M23.5186 28.5V28.4062C23.529 27.4115 23.6331 26.6198 23.8311 26.0312C24.029 25.4427 24.3102 24.9661 24.6748 24.6016C25.0394 24.237 25.4769 23.901 25.9873 23.5937C26.2946 23.4062 26.5706 23.1849 26.8154 22.9297C27.0602 22.6693 27.2529 22.3698 27.3936 22.0312C27.5394 21.6927 27.6123 21.3177 27.6123 20.9062C27.6123 20.3958 27.4925 19.9531 27.2529 19.5781C27.0133 19.2031 26.693 18.9141 26.292 18.7109C25.891 18.5078 25.4456 18.4062 24.9561 18.4062C24.529 18.4062 24.1175 18.4948 23.7217 18.6719C23.3258 18.849 22.9951 19.1276 22.7295 19.5078C22.4639 19.888 22.3102 20.3854 22.2686 21H20.2998C20.3415 20.1146 20.5706 19.3568 20.9873 18.7266C21.4092 18.0964 21.9639 17.6146 22.6514 17.2812C23.3441 16.9479 24.1123 16.7812 24.9561 16.7812C25.8727 16.7812 26.6696 16.9635 27.3467 17.3281C28.029 17.6927 28.555 18.1927 28.9248 18.8281C29.2998 19.4635 29.4873 20.1875 29.4873 21C29.4873 21.5729 29.3988 22.0911 29.2217 22.5547C29.0498 23.0182 28.7998 23.4323 28.4717 23.7969C28.1488 24.1615 27.7581 24.4844 27.2998 24.7656C26.8415 25.0521 26.4743 25.3542 26.1982 25.6719C25.9222 25.9844 25.7217 26.3568 25.5967 26.7891C25.4717 27.2214 25.404 27.7604 25.3936 28.4062V28.5H23.5186ZM24.5186 33.125C24.1331 33.125 23.8024 32.987 23.5264 32.7109C23.2503 32.4349 23.1123 32.1042 23.1123 31.7187C23.1123 31.3333 23.2503 31.0026 23.5264 30.7266C23.8024 30.4505 24.1331 30.3125 24.5186 30.3125C24.904 30.3125 25.2347 30.4505 25.5107 30.7266C25.7868 31.0026 25.9248 31.3333 25.9248 31.7187C25.9248 31.974 25.8597 32.2083 25.7295 32.4219C25.6045 32.6354 25.4352 32.8073 25.2217 32.9375C25.0133 33.0625 24.779 33.125 24.5186 33.125Z" fill="white"/>
</svg>
