<svg width="48" height="48" viewBox="0 0 48 48" fill="none" xmlns="http://www.w3.org/2000/svg">
<rect width="48" height="48" rx="24" fill="#1E293B"/>
<path fill-rule="evenodd" clip-rule="evenodd" d="M31.548 24.2484C29.7104 24.9924 27.7269 25.4513 25.6523 25.5702C25.2945 25.5907 24.934 25.6011 24.5711 25.6011C24.2082 25.6011 23.8477 25.5907 23.4899 25.5702C21.4148 25.4513 19.4309 24.9922 17.5929 24.2479C13.7359 22.6859 10.5219 19.8676 8.4585 16.3006C11.6747 10.7407 17.6861 7 24.5711 7C31.4562 7 37.4675 10.7407 40.6837 16.3006C38.6201 19.868 35.4056 22.6865 31.548 24.2484Z" fill="white"/>
<path d="M17.5925 25.6958C17.1482 25.5158 16.7123 25.3192 16.2858 25.1067C14.8998 26.0831 13.728 27.2992 12.8457 28.6866C14.3454 31.0449 16.6813 32.9082 19.4846 33.9409C20.8204 34.433 22.2624 34.7365 23.7706 34.8151H25.3422C26.85 34.7365 29.5002 36.2303 25.6519 39.9999C28.4556 38.9673 34.7672 31.0452 36.267 28.6866C35.3872 27.3032 34.2197 26.09 32.8387 25.115C32.4172 25.3246 31.9865 25.5186 31.5476 25.6963C29.71 26.4403 27.7265 26.8992 25.6519 27.0181C25.2941 27.0386 24.9336 27.049 24.5707 27.049C24.2078 27.049 23.8473 27.0386 23.4895 27.0181C21.4144 26.8992 19.4304 26.4401 17.5925 25.6958Z" fill="white"/>
<rect x="16.8018" y="13.9214" width="15.573" height="5.5618" rx="2.7809" fill="#162550"/>
<ellipse cx="28.8825" cy="16.6714" rx="1.01966" ry="1.01966" fill="#04FED1"/>
<ellipse cx="24.5568" cy="30.3904" rx="1.01966" ry="1.01966" fill="#162550"/>
<ellipse cx="20.4786" cy="16.6714" rx="1.01966" ry="1.01966" fill="#04FED1"/>
<ellipse cx="20.4786" cy="30.3904" rx="1.01966" ry="1.01966" fill="#162550"/>
<ellipse cx="28.6359" cy="30.3904" rx="1.01966" ry="1.01966" fill="#162550"/>
</svg>
