<svg width="17" height="17" viewBox="0 0 17 17" fill="none" xmlns="http://www.w3.org/2000/svg">
<path fill-rule="evenodd" clip-rule="evenodd" d="M12.964 7.40769C12.964 8.13736 12.8203 8.85988 12.5411 9.534C12.2618 10.2081 11.8525 10.8206 11.3366 11.3366C10.8206 11.8525 10.2081 12.2618 9.534 12.5411C8.85988 12.8203 8.13736 12.964 7.40769 12.964C6.67802 12.964 5.9555 12.8203 5.28138 12.5411C4.60726 12.2618 3.99473 11.8525 3.47878 11.3366C2.96283 10.8206 2.55356 10.2081 2.27432 9.534C1.99509 8.85988 1.85138 8.13736 1.85138 7.40769C1.85138 5.93406 2.43677 4.52079 3.47878 3.47878C4.52079 2.43677 5.93406 1.85138 7.40769 1.85138C8.88132 1.85138 10.2946 2.43677 11.3366 3.47878C12.3786 4.52079 12.964 5.93406 12.964 7.40769ZM11.9515 13.2603C10.4629 14.416 8.58979 14.961 6.71352 14.7842C4.83726 14.6074 3.09888 13.7222 1.8523 12.3089C0.605717 10.8955 -0.0553658 9.06014 0.00363503 7.17649C0.0626358 5.29284 0.837284 3.50247 2.16988 2.16988C3.50247 0.837284 5.29284 0.0626358 7.17649 0.00363503C9.06014 -0.0553658 10.8955 0.605717 12.3089 1.8523C13.7222 3.09888 14.6074 4.83726 14.7842 6.71352C14.961 8.58979 14.416 10.4629 13.2603 11.9515L16.7053 15.3964C16.7962 15.4812 16.8692 15.5835 16.9198 15.697C16.9704 15.8106 16.9977 15.9333 16.9999 16.0576C17.002 16.182 16.9792 16.3055 16.9326 16.4208C16.886 16.5361 16.8167 16.6408 16.7288 16.7288C16.6408 16.8167 16.5361 16.886 16.4208 16.9326C16.3055 16.9792 16.182 17.002 16.0576 16.9999C15.9333 16.9977 15.8106 16.9704 15.697 16.9198C15.5835 16.8692 15.4812 16.7962 15.3964 16.7053L11.9515 13.2603Z" fill="#9CA3AF"/>
</svg>
