<svg xmlns="http://www.w3.org/2000/svg" xmlns:xlink="http://www.w3.org/1999/xlink" width="500" zoomAndPan="magnify" viewBox="0 0 375 149.999998" height="200" preserveAspectRatio="xMidYMid meet" version="1.0"><defs><g/><clipPath id="8c323cd435"><path d="M 9.039062 50 L 58 50 L 58 98.773438 L 9.039062 98.773438 Z M 9.039062 50 " clip-rule="nonzero"/></clipPath><clipPath id="bbc8e130ed"><path d="M 21 21.527344 L 143 21.527344 L 143 52 L 21 52 Z M 21 21.527344 " clip-rule="nonzero"/></clipPath><clipPath id="1a167121e6"><path d="M 94 51.179688 L 142.976562 51.179688 L 142.976562 100 L 94 100 Z M 94 51.179688 " clip-rule="nonzero"/></clipPath><clipPath id="31dfe954ef"><path d="M 9.039062 98 L 131 98 L 131 128.0625 L 9.039062 128.0625 Z M 9.039062 98 " clip-rule="nonzero"/></clipPath><clipPath id="5710e21bab"><path d="M 93.515625 49.753906 L 143 49.753906 L 143 99.433594 L 93.515625 99.433594 Z M 93.515625 49.753906 " clip-rule="nonzero"/></clipPath><clipPath id="388850e209"><path d="M 142.976562 74.484375 C 142.976562 88.140625 131.90625 99.210938 118.246094 99.210938 C 104.589844 99.210938 93.519531 88.140625 93.519531 74.484375 C 93.519531 60.824219 104.589844 49.753906 118.246094 49.753906 C 131.90625 49.753906 142.976562 60.824219 142.976562 74.484375 Z M 142.976562 74.484375 " clip-rule="nonzero"/></clipPath><clipPath id="ecb11bb042"><path d="M 119.332031 49.753906 L 130.894531 49.753906 L 130.894531 99.433594 L 119.332031 99.433594 Z M 119.332031 49.753906 " clip-rule="nonzero"/></clipPath><clipPath id="9074647497"><path d="M 142.976562 74.484375 C 142.976562 88.140625 131.90625 99.210938 118.246094 99.210938 C 104.589844 99.210938 93.519531 88.140625 93.519531 74.484375 C 93.519531 60.824219 104.589844 49.753906 118.246094 49.753906 C 131.90625 49.753906 142.976562 60.824219 142.976562 74.484375 Z M 142.976562 74.484375 " clip-rule="nonzero"/></clipPath><clipPath id="08a7a0ce9f"><path d="M 93.515625 64.246094 L 143 64.246094 L 143 75.320312 L 93.515625 75.320312 Z M 93.515625 64.246094 " clip-rule="nonzero"/></clipPath><clipPath id="84cd6d5e54"><path d="M 142.976562 74.484375 C 142.976562 88.140625 131.90625 99.210938 118.246094 99.210938 C 104.589844 99.210938 93.519531 88.140625 93.519531 74.484375 C 93.519531 60.824219 104.589844 49.753906 118.246094 49.753906 C 131.90625 49.753906 142.976562 60.824219 142.976562 74.484375 Z M 142.976562 74.484375 " clip-rule="nonzero"/></clipPath><clipPath id="5c59f5f0f0"><path d="M 133.601562 51 L 143 51 L 143 85.164062 L 133.601562 85.164062 Z M 133.601562 51 " clip-rule="nonzero"/></clipPath><clipPath id="fc39f567a3"><path d="M 142.976562 74.484375 C 142.976562 88.140625 131.90625 99.210938 118.246094 99.210938 C 104.589844 99.210938 93.519531 88.140625 93.519531 74.484375 C 93.519531 60.824219 104.589844 49.753906 118.246094 49.753906 C 131.90625 49.753906 142.976562 60.824219 142.976562 74.484375 Z M 142.976562 74.484375 " clip-rule="nonzero"/></clipPath><clipPath id="1204ac4aac"><path d="M 94.230469 50.21875 L 122.773438 50.21875 L 122.773438 98.695312 L 94.230469 98.695312 Z M 94.230469 50.21875 " clip-rule="nonzero"/></clipPath><clipPath id="62e5471616"><path d="M 142.976562 74.484375 C 142.976562 88.140625 131.90625 99.210938 118.246094 99.210938 C 104.589844 99.210938 93.519531 88.140625 93.519531 74.484375 C 93.519531 60.824219 104.589844 49.753906 118.246094 49.753906 C 131.90625 49.753906 142.976562 60.824219 142.976562 74.484375 Z M 142.976562 74.484375 " clip-rule="nonzero"/></clipPath><clipPath id="4480e902ea"><path d="M 8.070312 49.753906 L 58.84375 49.753906 L 58.84375 100.523438 L 8.070312 100.523438 Z M 8.070312 49.753906 " clip-rule="nonzero"/></clipPath><clipPath id="6e16e227ef"><path d="M 33.457031 49.753906 C 19.4375 49.753906 8.070312 61.117188 8.070312 75.136719 C 8.070312 89.15625 19.4375 100.523438 33.457031 100.523438 C 47.476562 100.523438 58.84375 89.15625 58.84375 75.136719 C 58.84375 61.117188 47.476562 49.753906 33.457031 49.753906 Z M 33.457031 49.753906 " clip-rule="nonzero"/></clipPath><clipPath id="16e078ae22"><path d="M 6.777344 48.457031 L 60.578125 48.457031 L 60.578125 102 L 6.777344 102 Z M 6.777344 48.457031 " clip-rule="nonzero"/></clipPath></defs><g clip-path="url(#8c323cd435)"><path fill="#004f9e" d="M 18.59375 91.828125 L 18.128906 90.324219 C 16.890625 88.617188 15.464844 86.464844 14.210938 84.304688 C 13.269531 82.679688 12.429688 81.050781 11.839844 79.609375 L 11.148438 78.742188 C 11.253906 79.308594 11.378906 79.875 11.53125 80.441406 C 12.742188 85.03125 15.265625 88.925781 18.59375 91.828125 M 46.867188 93.265625 L 45.574219 93.34375 C 43.769531 94.097656 41.375 94.835938 38.941406 95.445312 C 36.390625 96.085938 33.796875 96.585938 31.796875 96.8125 L 30.574219 97.273438 C 33.464844 97.664062 36.476562 97.507812 39.472656 96.714844 C 42.207031 95.992188 44.691406 94.808594 46.867188 93.265625 Z M 55.066406 66.621094 L 54.769531 68.09375 C 55.027344 70.03125 55.167969 72.472656 55.199219 74.855469 C 55.234375 77.625 55.117188 80.332031 54.859375 82.101562 L 54.957031 82.878906 C 56.648438 78.53125 57.027344 73.628906 55.746094 68.773438 C 55.550781 68.035156 55.324219 67.320312 55.066406 66.621094 Z M 20.523438 56.535156 L 21.101562 55.480469 C 18.101562 57.445312 15.644531 60.070312 13.878906 63.101562 C 13.398438 63.925781 12.96875 64.78125 12.597656 65.660156 L 14.085938 64.605469 C 14.847656 63.316406 15.851562 61.875 16.945312 60.492188 C 18.101562 59.03125 19.359375 57.628906 20.523438 56.535156 Z M 33.707031 51.738281 L 35.296875 52.726562 C 36.96875 52.996094 38.84375 53.457031 40.667969 54.019531 C 42.5 54.585938 44.285156 55.257812 45.757812 55.945312 L 47.105469 56.128906 C 46.476562 55.667969 45.820312 55.242188 45.144531 54.847656 C 41.722656 52.855469 37.785156 51.746094 33.707031 51.738281 Z M 24.570312 72.714844 C 26.511719 70.332031 28.457031 67.949219 30.402344 65.566406 L 28.191406 57.183594 C 25.703125 57.214844 23.214844 57.246094 20.730469 57.28125 C 19.660156 58.308594 18.527344 59.585938 17.476562 60.914062 C 16.453125 62.207031 15.511719 63.546875 14.78125 64.761719 L 15.164062 68.378906 L 15.5625 72.191406 Z M 29.527344 81.148438 C 27.863281 78.5625 26.199219 75.976562 24.53125 73.390625 L 15.464844 72.867188 L 12.652344 79.789062 C 13.214844 81.089844 13.964844 82.527344 14.800781 83.964844 C 15.921875 85.902344 17.191406 87.839844 18.335938 89.449219 L 21.972656 90.230469 L 25.722656 91.035156 Z M 39.082031 79.039062 L 30.160156 81.394531 L 26.335938 91.335938 L 31.972656 96.105469 C 33.90625 95.875 36.359375 95.394531 38.777344 94.789062 C 40.800781 94.28125 42.800781 93.683594 44.4375 93.0625 L 46.101562 89.601562 L 47.757812 86.144531 Z M 40.027344 69.300781 C 39.859375 72.371094 39.6875 75.441406 39.511719 78.511719 L 48.195312 85.625 C 50.226562 84.132812 52.261719 82.644531 54.292969 81.152344 C 54.472656 79.460938 54.546875 77.1875 54.519531 74.863281 C 54.492188 72.765625 54.378906 70.632812 54.179688 68.851562 L 51.332031 66.414062 L 48.417969 63.925781 Z M 31.0625 65.394531 C 33.925781 66.503906 36.792969 67.613281 39.660156 68.730469 L 48.023438 63.371094 C 47.128906 61.078125 46.230469 58.789062 45.335938 56.496094 C 43.921875 55.847656 42.21875 55.210938 40.46875 54.671875 C 38.730469 54.136719 36.953125 53.691406 35.359375 53.425781 L 32.203125 55.164062 L 28.847656 57.011719 Z M 29.378906 65.34375 L 27.472656 58.128906 L 27.027344 58.132812 L 28.605469 64.109375 C 26.859375 66.242188 25.117188 68.378906 23.375 70.515625 L 16.28125 70.105469 L 16.410156 71.308594 L 24.148438 71.753906 C 25.890625 69.617188 27.632812 67.480469 29.378906 65.34375 Z M 40.824219 76.605469 L 40.746094 77.96875 L 48.234375 84.101562 C 49.871094 82.902344 51.511719 81.703125 53.148438 80.5 C 53.316406 78.648438 53.339844 76.726562 53.316406 74.878906 C 53.292969 73.078125 53.21875 71.25 53.035156 69.453125 L 52.773438 69.226562 C 52.863281 70.527344 52.90625 71.835938 52.921875 73.128906 C 52.945312 74.976562 52.921875 76.898438 52.757812 78.75 C 51.117188 79.953125 49.480469 81.152344 47.839844 82.351562 Z M 46.109375 86.511719 L 45.5 86.011719 L 43.214844 90.765625 C 41.578125 91.355469 39.875 91.839844 38.195312 92.261719 C 36.21875 92.761719 34.15625 93.203125 32.125 93.476562 L 28.210938 90.164062 L 27.914062 90.933594 L 32.382812 94.714844 C 34.414062 94.4375 36.476562 93.996094 38.453125 93.5 C 40.132812 93.078125 41.835938 92.59375 43.472656 92.003906 Z M 27.585938 51.675781 C 33.917969 50.003906 40.328125 51.058594 45.574219 54.113281 C 50.820312 57.167969 54.898438 62.222656 56.570312 68.554688 C 58.242188 74.886719 57.1875 81.296875 54.132812 86.542969 C 51.078125 91.789062 46.023438 95.867188 39.691406 97.539062 C 33.359375 99.210938 26.949219 98.15625 21.703125 95.101562 C 16.457031 92.046875 12.378906 86.992188 10.707031 80.660156 C 9.035156 74.328125 10.089844 67.917969 13.144531 62.671875 C 16.199219 57.425781 21.253906 53.347656 27.585938 51.675781 Z M 27.585938 51.675781 " fill-opacity="1" fill-rule="nonzero"/></g><g clip-path="url(#bbc8e130ed)"><path fill="#004f9e" d="M 31.113281 48.621094 C 45.980469 34.085938 66.320312 25.128906 88.753906 25.128906 C 109.511719 25.128906 128.480469 32.800781 142.976562 45.460938 C 128.074219 30.675781 107.554688 21.542969 84.902344 21.542969 C 59.234375 21.542969 36.308594 33.269531 21.1875 51.65625 C 24.1875 50.023438 27.546875 48.960938 31.113281 48.621094 " fill-opacity="1" fill-rule="evenodd"/></g><path fill="#94c23c" d="M 99.429688 30.839844 C 79.53125 30.839844 61.78125 40.046875 50.214844 54.4375 C 50.871094 54.976562 51.5 55.546875 52.097656 56.148438 C 53.085938 57.132812 53.992188 58.199219 54.8125 59.332031 C 65.613281 43.796875 83.589844 33.628906 103.945312 33.628906 C 118.097656 33.628906 131.097656 38.542969 141.335938 46.757812 C 130.191406 36.855469 115.515625 30.839844 99.429688 30.839844 " fill-opacity="1" fill-rule="evenodd"/><g clip-path="url(#1a167121e6)"><path fill="#f3943e" d="M 133.417969 58.132812 L 133.882812 59.636719 C 135.125 61.34375 136.550781 63.5 137.804688 65.660156 C 138.742188 67.285156 139.585938 68.910156 140.175781 70.351562 L 140.863281 71.21875 C 140.761719 70.652344 140.632812 70.085938 140.484375 69.519531 C 139.273438 64.929688 136.746094 61.035156 133.417969 58.132812 M 105.148438 56.699219 L 106.441406 56.617188 C 108.242188 55.867188 110.640625 55.125 113.074219 54.515625 C 115.625 53.875 118.21875 53.375 120.214844 53.152344 L 121.441406 52.691406 C 118.550781 52.296875 115.539062 52.457031 112.539062 53.246094 C 109.808594 53.96875 107.324219 55.15625 105.148438 56.699219 Z M 96.949219 83.34375 L 97.242188 81.867188 C 96.988281 79.929688 96.84375 77.492188 96.816406 75.109375 C 96.78125 72.335938 96.894531 69.628906 97.15625 67.863281 L 97.058594 67.082031 C 95.367188 71.429688 94.984375 76.332031 96.269531 81.191406 C 96.460938 81.925781 96.691406 82.644531 96.949219 83.34375 Z M 131.488281 93.425781 L 130.914062 94.484375 C 133.914062 92.519531 136.371094 89.890625 138.132812 86.863281 C 138.613281 86.035156 139.042969 85.183594 139.417969 84.304688 L 137.925781 85.355469 C 137.167969 86.648438 136.160156 88.089844 135.066406 89.472656 C 133.914062 90.933594 132.65625 92.332031 131.488281 93.425781 Z M 118.308594 98.226562 L 116.71875 97.234375 C 115.042969 96.964844 113.167969 96.503906 111.347656 95.941406 C 109.511719 95.375 107.726562 94.703125 106.257812 94.019531 L 104.90625 93.832031 C 105.539062 94.292969 106.195312 94.722656 106.867188 95.113281 C 110.292969 97.105469 114.226562 98.214844 118.308594 98.226562 Z M 127.445312 77.25 C 125.5 79.632812 123.558594 82.015625 121.613281 84.394531 L 123.824219 92.777344 C 126.3125 92.746094 128.796875 92.714844 131.285156 92.683594 C 132.351562 91.652344 133.484375 90.378906 134.535156 89.050781 C 135.558594 87.753906 136.503906 86.414062 137.230469 85.199219 L 136.851562 81.582031 L 136.449219 77.769531 Z M 122.488281 68.816406 C 124.152344 71.402344 125.816406 73.988281 127.480469 76.570312 L 136.546875 77.09375 L 139.363281 70.171875 C 138.800781 68.871094 138.046875 67.433594 137.214844 66 C 136.09375 64.0625 134.824219 62.125 133.675781 60.511719 L 130.039062 59.734375 L 126.289062 58.929688 Z M 112.933594 70.921875 L 121.855469 68.570312 L 125.679688 58.625 L 120.042969 53.855469 C 118.109375 54.089844 115.65625 54.566406 113.238281 55.171875 C 111.210938 55.683594 109.214844 56.28125 107.574219 56.898438 L 105.914062 60.363281 L 104.253906 63.816406 Z M 111.988281 80.660156 C 112.15625 77.589844 112.328125 74.519531 112.503906 71.449219 L 103.820312 64.339844 C 101.789062 65.832031 99.753906 67.320312 97.722656 68.808594 C 97.542969 70.5 97.464844 72.773438 97.496094 75.097656 C 97.523438 77.195312 97.632812 79.328125 97.835938 81.113281 L 100.683594 83.546875 L 103.59375 86.035156 Z M 120.953125 84.570312 C 118.085938 83.457031 115.21875 82.347656 112.355469 81.230469 L 103.988281 86.589844 C 104.886719 88.882812 105.78125 91.175781 106.679688 93.46875 C 108.09375 94.117188 109.792969 94.75 111.546875 95.292969 C 113.28125 95.828125 115.0625 96.269531 116.65625 96.539062 L 119.808594 94.800781 L 123.164062 92.949219 Z M 122.636719 84.617188 L 124.539062 91.835938 L 124.984375 91.828125 L 123.40625 85.855469 C 125.152344 83.71875 126.898438 81.582031 128.640625 79.445312 L 135.734375 79.855469 L 135.605469 78.65625 L 127.867188 78.207031 C 126.125 80.34375 124.378906 82.480469 122.636719 84.617188 Z M 111.191406 73.355469 L 111.269531 71.992188 L 103.78125 65.859375 C 102.140625 67.058594 100.503906 68.261719 98.863281 69.460938 C 98.699219 71.316406 98.675781 73.234375 98.699219 75.082031 C 98.71875 76.886719 98.796875 78.714844 98.980469 80.511719 L 99.242188 80.734375 C 99.152344 79.433594 99.105469 78.128906 99.089844 76.835938 C 99.066406 74.984375 99.089844 73.066406 99.257812 71.210938 C 100.894531 70.011719 102.535156 68.8125 104.171875 67.609375 Z M 105.90625 63.449219 L 106.515625 63.949219 L 108.796875 59.195312 C 110.433594 58.605469 112.140625 58.121094 113.820312 57.699219 C 115.796875 57.203125 117.859375 56.761719 119.890625 56.484375 L 123.804688 59.796875 L 124.101562 59.027344 L 119.632812 55.246094 C 117.601562 55.523438 115.539062 55.964844 113.5625 56.460938 C 111.878906 56.882812 110.175781 57.367188 108.539062 57.957031 Z M 124.429688 98.285156 C 118.097656 99.957031 111.683594 98.90625 106.441406 95.851562 C 101.195312 92.796875 97.113281 87.738281 95.445312 81.40625 C 93.773438 75.074219 94.828125 68.664062 97.882812 63.417969 C 100.9375 58.175781 105.992188 54.09375 112.324219 52.421875 C 118.65625 50.753906 125.066406 51.804688 130.3125 54.859375 C 135.554688 57.914062 139.636719 62.972656 141.308594 69.304688 C 142.980469 75.636719 141.925781 82.046875 138.871094 87.292969 C 135.816406 92.535156 130.761719 96.617188 124.429688 98.285156 Z M 124.429688 98.285156 " fill-opacity="1" fill-rule="nonzero"/></g><g clip-path="url(#31dfe954ef)"><path fill="#f3943e" d="M 120.902344 101.339844 C 106.035156 115.875 85.695312 124.832031 63.261719 124.832031 C 42.5 124.832031 23.535156 117.164062 9.039062 104.5 C 23.941406 119.285156 44.460938 128.417969 67.113281 128.417969 C 92.777344 128.417969 115.703125 116.691406 130.828125 98.308594 C 127.828125 99.9375 124.46875 101 120.902344 101.339844 " fill-opacity="1" fill-rule="evenodd"/></g><path fill="#fece42" d="M 52.582031 119.121094 C 72.484375 119.121094 90.230469 109.914062 101.800781 95.527344 C 101.144531 94.988281 100.515625 94.414062 99.914062 93.816406 C 98.929688 92.828125 98.019531 91.765625 97.203125 90.628906 C 86.402344 106.164062 68.421875 116.335938 48.066406 116.335938 C 33.917969 116.335938 20.917969 111.417969 10.675781 103.207031 C 21.824219 113.109375 36.5 119.121094 52.582031 119.121094 " fill-opacity="1" fill-rule="evenodd"/><g clip-path="url(#5710e21bab)"><g clip-path="url(#388850e209)"><path fill="#f3943e" d="M 142.976562 74.484375 C 142.976562 88.140625 131.90625 99.210938 118.246094 99.210938 C 104.589844 99.210938 93.519531 88.140625 93.519531 74.484375 C 93.519531 60.824219 104.589844 49.753906 118.246094 49.753906 C 131.90625 49.753906 142.976562 60.824219 142.976562 74.484375 " fill-opacity="1" fill-rule="nonzero"/></g></g><g clip-path="url(#ecb11bb042)"><g clip-path="url(#9074647497)"><path fill="#1e293b" d="M 121.886719 106.078125 L 120.621094 105.476562 C 131.214844 83.101562 130.285156 68.121094 127.644531 59.496094 C 124.808594 50.238281 119.488281 46.1875 119.4375 46.144531 L 120.273438 45.023438 C 120.507812 45.199219 126.011719 49.394531 128.980469 59.085938 C 130.714844 64.742188 131.210938 71.109375 130.460938 78.007812 C 129.523438 86.59375 126.636719 96.035156 121.886719 106.078125 " fill-opacity="1" fill-rule="nonzero"/></g></g><g clip-path="url(#08a7a0ce9f)"><g clip-path="url(#84cd6d5e54)"><path fill="#1e293b" d="M 89.070312 75.105469 L 88.425781 73.859375 C 95.722656 70.101562 103.269531 67.414062 110.863281 65.878906 C 116.945312 64.648438 123.066406 64.148438 129.058594 64.394531 C 139.285156 64.816406 145.515625 67.230469 145.773438 67.332031 L 145.261719 68.632812 C 145.179688 68.601562 138.929688 66.191406 128.9375 65.792969 C 119.707031 65.421875 105.292969 66.738281 89.070312 75.105469 " fill-opacity="1" fill-rule="nonzero"/></g></g><g clip-path="url(#5c59f5f0f0)"><g clip-path="url(#fc39f567a3)"><path fill="#1e293b" d="M 142.382812 85.148438 C 137.953125 78.0625 135.847656 69.15625 134.863281 62.941406 C 133.800781 56.21875 133.773438 51.082031 133.773438 51.03125 L 135.175781 51.027344 C 135.175781 51.226562 135.324219 71.207031 143.570312 84.410156 L 142.382812 85.148438 " fill-opacity="1" fill-rule="nonzero"/></g></g><g clip-path="url(#1204ac4aac)"><g clip-path="url(#62e5471616)"><path fill="#1e293b" d="M 98.515625 98.550781 L 97.648438 97.449219 C 107.285156 89.859375 114.058594 83.003906 117.773438 77.082031 C 120.882812 72.125 121.878906 67.78125 120.734375 64.171875 C 117.203125 53.050781 94.539062 51.742188 94.3125 51.726562 L 94.382812 50.332031 C 94.625 50.34375 100.367188 50.660156 106.667969 52.429688 C 110.394531 53.476562 113.527344 54.8125 115.984375 56.410156 C 119.125 58.449219 121.167969 60.917969 122.066406 63.746094 C 124.804688 72.371094 116.882812 84.082031 98.515625 98.550781 " fill-opacity="1" fill-rule="nonzero"/></g></g><g clip-path="url(#4480e902ea)"><g clip-path="url(#6e16e227ef)"><path fill="#004f9e" d="M 8.070312 49.753906 L 58.84375 49.753906 L 58.84375 100.523438 L 8.070312 100.523438 Z M 8.070312 49.753906 " fill-opacity="1" fill-rule="nonzero"/></g></g><g clip-path="url(#16e078ae22)"><path fill="#1e293b" d="M 33.453125 48.457031 C 18.742188 48.457031 6.777344 60.425781 6.777344 75.136719 C 6.777344 89.847656 18.742188 101.816406 33.453125 101.816406 C 48.167969 101.816406 60.132812 89.847656 60.132812 75.136719 C 60.132812 60.425781 48.167969 48.457031 33.453125 48.457031 Z M 49.707031 85.105469 L 43.703125 80.753906 C 44.125 76.796875 43.894531 72.222656 43.6875 69.566406 C 44.398438 68.996094 45.660156 68.003906 47.042969 66.996094 C 48.464844 65.960938 49.386719 65.367188 49.839844 65.082031 C 51.929688 66.347656 55.183594 68.738281 56.957031 72.128906 C 57.152344 73.421875 57.378906 75.667969 57.066406 77.738281 C 55.089844 81.742188 51.75 84.023438 49.707031 85.105469 Z M 24.675781 96.835938 C 21.699219 95.617188 19.445312 94.019531 18.554688 93.339844 C 17.914062 92.273438 16.585938 89.5 16.25 84.542969 C 18.839844 83.117188 21.867188 81.605469 23.210938 80.941406 C 25.066406 82.445312 28.175781 84.523438 32.828125 86.324219 C 33.355469 89.78125 33.441406 93.148438 33.453125 94.503906 C 28.054688 96.917969 24.988281 96.851562 24.675781 96.835938 Z M 17.796875 56.640625 C 18.777344 55.90625 21.597656 53.917969 24.472656 52.839844 C 28.496094 53.101562 32.324219 55.21875 33.460938 55.898438 C 33.453125 56.523438 33.417969 57.667969 33.253906 59.347656 C 33.089844 61.019531 32.882812 62.402344 32.75 63.21875 L 22.808594 68.757812 C 20.648438 67.957031 17.296875 66.382812 16.058594 65.792969 C 16.058594 65.761719 16.058594 65.734375 16.0625 65.699219 C 16.1875 60.519531 17.199219 57.804688 17.796875 56.640625 Z M 42.492188 69.671875 C 42.695312 72.308594 42.921875 76.863281 42.507812 80.707031 C 40.332031 81.988281 34.882812 84.429688 33.191406 85.179688 C 28.621094 83.398438 25.582031 81.328125 23.832031 79.890625 C 23.742188 79.0625 23.617188 77.441406 23.59375 74.722656 C 23.574219 72.222656 23.613281 70.507812 23.640625 69.664062 L 33.210938 64.328125 C 34.257812 64.886719 36.46875 66.070312 38.117188 67.019531 C 39.710938 67.9375 41.566406 69.089844 42.492188 69.671875 Z M 58.171875 69.519531 C 57.882812 69.730469 57.546875 70.003906 57.269531 70.292969 C 54.976562 66.832031 51.453125 64.570312 49.605469 63.554688 C 49.128906 62.503906 48.398438 60.984375 47.574219 59.59375 C 46.589844 57.921875 45.542969 56.554688 44.976562 55.851562 L 46.425781 53.363281 C 52.285156 56.867188 56.617188 62.671875 58.171875 69.519531 Z M 45.386719 52.773438 L 43.964844 55.21875 C 43.042969 55.054688 41.132812 54.773438 39 54.773438 C 36.984375 54.773438 35.40625 54.96875 34.457031 55.128906 L 34.464844 55.117188 C 34.269531 54.988281 30.070312 52.261719 25.277344 51.714844 L 25.523438 51.058594 C 28.019531 50.234375 30.683594 49.78125 33.453125 49.78125 C 37.765625 49.78125 41.828125 50.867188 45.386719 52.773438 Z M 16.21875 56.5625 L 16.476562 56.640625 C 15.808594 58.15625 14.984375 60.953125 14.867188 65.671875 C 14.859375 65.941406 14.855469 66.183594 14.851562 66.425781 C 12.140625 69.832031 10.90625 73.140625 10.46875 74.539062 L 8.117188 74.539062 C 8.28125 67.449219 11.367188 61.070312 16.21875 56.5625 Z M 8.117188 75.730469 L 10.425781 75.730469 C 11.640625 79.488281 13.988281 82.851562 15.039062 84.238281 C 15.296875 88.851562 16.382812 91.761719 17.164062 93.289062 L 16.101562 93.59375 C 11.316406 89.09375 8.28125 82.765625 8.117188 75.730469 Z M 25.515625 99.207031 C 25.523438 98.824219 25.523438 98.386719 25.523438 98.011719 C 26.996094 97.914062 30.082031 97.421875 34.628906 95.285156 C 39.714844 95.878906 42.890625 95.300781 44.054688 95.011719 L 45.453125 97.464844 C 41.878906 99.390625 37.792969 100.488281 33.453125 100.488281 C 30.683594 100.488281 28.015625 100.035156 25.515625 99.207031 Z M 46.492188 96.871094 L 45.054688 94.347656 C 47.582031 91.566406 49.171875 88.050781 49.832031 86.394531 C 51.710938 85.472656 54.960938 83.464844 57.273438 79.816406 C 57.5 80.097656 57.804688 80.421875 58.179688 80.726562 C 56.632812 87.5625 52.328125 93.359375 46.492188 96.871094 Z M 46.492188 96.871094 " fill-opacity="1" fill-rule="nonzero"/></g><g fill="#ffffff" fill-opacity="1"><g transform="translate(167.373641, 82.604812)"><g><path d="M 49.640625 -26.25 L 49.640625 -21.6875 C 44.585938 -21.6875 40.140625 -22.21875 36.296875 -23.28125 C 32.453125 -24.34375 29.503906 -26.097656 27.453125 -28.546875 C 25.398438 -26.097656 22.441406 -24.34375 18.578125 -23.28125 C 14.722656 -22.21875 10.285156 -21.6875 5.265625 -21.6875 L 5.265625 -26.25 C 8.859375 -26.25 12.046875 -26.675781 14.828125 -27.53125 C 17.609375 -28.394531 19.785156 -29.59375 21.359375 -31.125 C 22.929688 -32.664062 23.71875 -34.460938 23.71875 -36.515625 L 23.71875 -38.984375 L 31.1875 -38.984375 L 31.1875 -36.515625 C 31.1875 -34.460938 31.972656 -32.664062 33.546875 -31.125 C 35.117188 -29.59375 37.296875 -28.394531 40.078125 -27.53125 C 42.859375 -26.675781 46.046875 -26.25 49.640625 -26.25 Z M 52.21875 -18.5 L 52.21875 -13.890625 L 2.640625 -13.890625 L 2.640625 -18.5 Z M 48.203125 -1.703125 C 48.203125 -0.378906 47.660156 0.84375 46.578125 1.96875 C 45.503906 3.101562 44.015625 4.101562 42.109375 4.96875 C 40.210938 5.832031 38.007812 6.5 35.5 6.96875 C 32.988281 7.445312 30.304688 7.6875 27.453125 7.6875 C 24.597656 7.6875 21.914062 7.445312 19.40625 6.96875 C 16.894531 6.5 14.6875 5.832031 12.78125 4.96875 C 10.882812 4.101562 9.394531 3.101562 8.3125 1.96875 C 7.238281 0.84375 6.703125 -0.378906 6.703125 -1.703125 C 6.703125 -2.984375 7.238281 -4.191406 8.3125 -5.328125 C 9.394531 -6.460938 10.882812 -7.457031 12.78125 -8.3125 C 14.6875 -9.175781 16.894531 -9.851562 19.40625 -10.34375 C 21.914062 -10.84375 24.597656 -11.09375 27.453125 -11.09375 C 30.304688 -11.09375 32.988281 -10.84375 35.5 -10.34375 C 38.007812 -9.851562 40.210938 -9.175781 42.109375 -8.3125 C 44.015625 -7.457031 45.503906 -6.460938 46.578125 -5.328125 C 47.660156 -4.191406 48.203125 -2.984375 48.203125 -1.703125 Z M 40.40625 -1.703125 C 40.40625 -2.617188 39.828125 -3.429688 38.671875 -4.140625 C 37.523438 -4.859375 35.972656 -5.425781 34.015625 -5.84375 C 32.054688 -6.269531 29.867188 -6.484375 27.453125 -6.484375 C 25.035156 -6.484375 22.847656 -6.269531 20.890625 -5.84375 C 18.929688 -5.425781 17.375 -4.859375 16.21875 -4.140625 C 15.070312 -3.429688 14.5 -2.617188 14.5 -1.703125 C 14.5 -0.785156 15.070312 0.0234375 16.21875 0.734375 C 17.375 1.453125 18.929688 2.019531 20.890625 2.4375 C 22.847656 2.863281 25.035156 3.078125 27.453125 3.078125 C 29.867188 3.078125 32.054688 2.863281 34.015625 2.4375 C 35.972656 2.019531 37.523438 1.453125 38.671875 0.734375 C 39.828125 0.0234375 40.40625 -0.785156 40.40625 -1.703125 Z M 40.40625 -1.703125 "/></g></g></g><g fill="#ffffff" fill-opacity="1"><g transform="translate(222.268556, 82.604812)"><g/></g></g><g fill="#ffffff" fill-opacity="1"><g transform="translate(238.737025, 82.604812)"><g><path d="M 41.015625 -27.890625 L 13.890625 -27.890625 L 13.890625 -21.6875 L 41.015625 -21.6875 Z M 48.203125 -37.828125 L 48.203125 -17.078125 L 6.703125 -17.078125 L 6.703125 -37.828125 L 13.890625 -37.828125 L 13.890625 -32.34375 L 41.015625 -32.34375 L 41.015625 -37.828125 Z M 52.21875 -12.46875 L 52.21875 -7.859375 L 31.078125 -7.859375 L 31.078125 5.984375 L 23.828125 5.984375 L 23.828125 -7.859375 L 2.640625 -7.859375 L 2.640625 -12.46875 Z M 52.21875 -12.46875 "/></g></g></g><g fill="#ffffff" fill-opacity="1"><g transform="translate(293.631939, 82.604812)"><g/></g></g><g fill="#ffffff" fill-opacity="1"><g transform="translate(310.100408, 82.604812)"><g><path d="M 48.046875 -25.03125 L 48.046875 5.984375 L 40.90625 5.984375 L 40.90625 -6.703125 L 7.25 -6.703125 L 7.25 -11.3125 L 40.84375 -11.3125 L 40.84375 -37.828125 L 48.046875 -37.828125 L 48.046875 -29.65625 L 56.109375 -29.65625 L 56.109375 -25.03125 Z M 3.78125 -37.828125 L 32.015625 -37.828125 C 32.015625 -33.617188 31.253906 -30.078125 29.734375 -27.203125 C 28.210938 -24.328125 26.101562 -22.019531 23.40625 -20.28125 C 20.71875 -18.550781 17.597656 -17.289062 14.046875 -16.5 C 10.503906 -15.707031 6.703125 -15.3125 2.640625 -15.3125 L 2.640625 -19.828125 C 6.335938 -19.828125 9.507812 -20.242188 12.15625 -21.078125 C 14.8125 -21.921875 16.976562 -23.007812 18.65625 -24.34375 C 20.34375 -25.6875 21.582031 -27.144531 22.375 -28.71875 C 23.164062 -30.289062 23.5625 -31.789062 23.5625 -33.21875 L 3.78125 -33.21875 Z M 3.78125 -37.828125 "/></g></g></g><g fill="#ffffff" fill-opacity="1"><g transform="translate(172.589478, 110.987115)"><g><path d="M 10.328125 -6.078125 C 10.328125 -5.753906 10.210938 -5.445312 9.984375 -5.15625 C 9.765625 -4.863281 9.457031 -4.609375 9.0625 -4.390625 C 8.664062 -4.171875 8.195312 -4 7.65625 -3.875 C 7.125 -3.75 6.546875 -3.6875 5.921875 -3.6875 C 5.296875 -3.6875 4.71875 -3.75 4.1875 -3.875 C 3.65625 -4 3.1875 -4.171875 2.78125 -4.390625 C 2.382812 -4.609375 2.070312 -4.863281 1.84375 -5.15625 C 1.625 -5.445312 1.515625 -5.753906 1.515625 -6.078125 C 1.515625 -6.398438 1.625 -6.703125 1.84375 -6.984375 C 2.070312 -7.273438 2.382812 -7.53125 2.78125 -7.75 C 3.1875 -7.976562 3.65625 -8.15625 4.1875 -8.28125 C 4.71875 -8.40625 5.296875 -8.46875 5.921875 -8.46875 C 6.546875 -8.46875 7.125 -8.40625 7.65625 -8.28125 C 8.195312 -8.15625 8.664062 -7.976562 9.0625 -7.75 C 9.457031 -7.53125 9.765625 -7.273438 9.984375 -6.984375 C 10.210938 -6.703125 10.328125 -6.398438 10.328125 -6.078125 Z M 9.0625 -6.078125 C 9.0625 -6.367188 8.925781 -6.628906 8.65625 -6.859375 C 8.382812 -7.097656 8.007812 -7.285156 7.53125 -7.421875 C 7.0625 -7.554688 6.523438 -7.625 5.921875 -7.625 C 5.316406 -7.625 4.773438 -7.554688 4.296875 -7.421875 C 3.828125 -7.285156 3.457031 -7.097656 3.1875 -6.859375 C 2.925781 -6.628906 2.796875 -6.367188 2.796875 -6.078125 C 2.796875 -5.796875 2.925781 -5.535156 3.1875 -5.296875 C 3.457031 -5.066406 3.828125 -4.878906 4.296875 -4.734375 C 4.773438 -4.597656 5.316406 -4.53125 5.921875 -4.53125 C 6.523438 -4.53125 7.0625 -4.597656 7.53125 -4.734375 C 8.007812 -4.878906 8.382812 -5.066406 8.65625 -5.296875 C 8.925781 -5.535156 9.0625 -5.796875 9.0625 -6.078125 Z M 11.25 -2.640625 L 11.25 -1.890625 L 6.5625 -1.890625 L 6.5625 1.328125 L 5.359375 1.328125 L 5.359375 -1.890625 L 0.65625 -1.890625 L 0.65625 -2.640625 Z M 11.25 -2.640625 "/></g></g></g><g fill="#ffffff" fill-opacity="1"><g transform="translate(188.794433, 110.987115)"><g><path d="M 9.53125 1.3125 L 9.53125 -1.65625 L 1.1875 -1.65625 L 1.1875 -5.40625 L 5.703125 -5.40625 L 5.703125 -7.46875 L 1.109375 -7.46875 L 1.109375 -8.21875 L 6.921875 -8.21875 L 6.921875 -4.6875 L 2.390625 -4.6875 L 2.390625 -2.40625 L 9.53125 -2.40625 L 9.53125 -8.21875 L 10.75 -8.21875 L 10.75 1.3125 Z M 9.53125 1.3125 "/></g></g></g><g fill="#ffffff" fill-opacity="1"><g transform="translate(212.859683, 110.987115)"><g><path d="M 11.25 -0.546875 L 11.25 0.203125 L 0.65625 0.203125 L 0.65625 -0.546875 L 5.359375 -0.546875 L 5.359375 -2.5625 C 4.609375 -2.644531 3.941406 -2.820312 3.359375 -3.09375 C 2.773438 -3.363281 2.316406 -3.703125 1.984375 -4.109375 C 1.660156 -4.523438 1.5 -4.972656 1.5 -5.453125 C 1.5 -5.867188 1.613281 -6.253906 1.84375 -6.609375 C 2.070312 -6.960938 2.382812 -7.269531 2.78125 -7.53125 C 3.1875 -7.789062 3.660156 -7.992188 4.203125 -8.140625 C 4.742188 -8.296875 5.332031 -8.375 5.96875 -8.375 C 6.59375 -8.375 7.175781 -8.296875 7.71875 -8.140625 C 8.257812 -7.992188 8.726562 -7.789062 9.125 -7.53125 C 9.53125 -7.269531 9.847656 -6.960938 10.078125 -6.609375 C 10.304688 -6.253906 10.421875 -5.867188 10.421875 -5.453125 C 10.421875 -4.972656 10.253906 -4.523438 9.921875 -4.109375 C 9.597656 -3.703125 9.144531 -3.363281 8.5625 -3.09375 C 7.976562 -2.820312 7.3125 -2.644531 6.5625 -2.5625 L 6.5625 -0.546875 Z M 9.1875 -5.453125 C 9.1875 -5.890625 9.039062 -6.269531 8.75 -6.59375 C 8.46875 -6.914062 8.082031 -7.164062 7.59375 -7.34375 C 7.113281 -7.53125 6.570312 -7.625 5.96875 -7.625 C 5.363281 -7.625 4.816406 -7.53125 4.328125 -7.34375 C 3.835938 -7.164062 3.453125 -6.914062 3.171875 -6.59375 C 2.890625 -6.269531 2.75 -5.890625 2.75 -5.453125 C 2.75 -5.023438 2.890625 -4.648438 3.171875 -4.328125 C 3.453125 -4.003906 3.835938 -3.753906 4.328125 -3.578125 C 4.816406 -3.398438 5.363281 -3.3125 5.96875 -3.3125 C 6.570312 -3.3125 7.113281 -3.398438 7.59375 -3.578125 C 8.082031 -3.753906 8.46875 -4.003906 8.75 -4.328125 C 9.039062 -4.648438 9.1875 -5.023438 9.1875 -5.453125 Z M 9.1875 -5.453125 "/></g></g></g><g fill="#ffffff" fill-opacity="1"><g transform="translate(229.064639, 110.987115)"><g><path d="M 10.484375 -6.28125 L 10.484375 -5.515625 L 1.5625 -5.515625 L 1.5625 -8.34375 L 2.765625 -8.34375 L 2.765625 -6.28125 Z M 11.25 -4.546875 L 11.25 -3.78125 L 0.65625 -3.78125 L 0.65625 -4.546875 Z M 10.484375 0.671875 L 10.484375 1.4375 L 1.5625 1.4375 L 1.5625 -1.0625 L 9.15625 -1.0625 L 9.15625 -2.03125 L 1.5 -2.03125 L 1.5 -2.796875 L 10.359375 -2.796875 L 10.359375 -0.34375 L 2.765625 -0.34375 L 2.765625 0.671875 Z M 10.484375 0.671875 "/></g></g></g><g fill="#ffffff" fill-opacity="1"><g transform="translate(245.269594, 110.987115)"><g/></g></g><g fill="#ffffff" fill-opacity="1"><g transform="translate(253.129893, 110.987115)"><g><path d="M 10.6875 -5.625 L 10.6875 -4.890625 C 9.644531 -4.898438 8.71875 -5.03125 7.90625 -5.28125 C 7.09375 -5.539062 6.445312 -5.960938 5.96875 -6.546875 C 5.476562 -5.960938 4.828125 -5.539062 4.015625 -5.28125 C 3.203125 -5.03125 2.273438 -4.898438 1.234375 -4.890625 L 1.234375 -5.625 C 2.003906 -5.65625 2.695312 -5.773438 3.3125 -5.984375 C 3.9375 -6.203125 4.425781 -6.488281 4.78125 -6.84375 C 5.144531 -7.195312 5.328125 -7.601562 5.328125 -8.0625 L 5.328125 -8.46875 L 6.59375 -8.46875 L 6.59375 -8.0625 C 6.59375 -7.601562 6.769531 -7.195312 7.125 -6.84375 C 7.488281 -6.488281 7.976562 -6.203125 8.59375 -5.984375 C 9.21875 -5.773438 9.914062 -5.65625 10.6875 -5.625 Z M 11.25 -3.90625 L 11.25 -3.140625 L 0.65625 -3.140625 L 0.65625 -3.90625 Z M 10.359375 -0.28125 C 10.359375 -0.0078125 10.242188 0.242188 10.015625 0.484375 C 9.796875 0.722656 9.484375 0.929688 9.078125 1.109375 C 8.671875 1.296875 8.203125 1.4375 7.671875 1.53125 C 7.140625 1.632812 6.570312 1.6875 5.96875 1.6875 C 5.363281 1.6875 4.789062 1.632812 4.25 1.53125 C 3.71875 1.4375 3.25 1.296875 2.84375 1.109375 C 2.4375 0.929688 2.117188 0.722656 1.890625 0.484375 C 1.671875 0.242188 1.5625 -0.0078125 1.5625 -0.28125 C 1.5625 -0.539062 1.671875 -0.789062 1.890625 -1.03125 C 2.117188 -1.269531 2.4375 -1.476562 2.84375 -1.65625 C 3.25 -1.84375 3.71875 -1.984375 4.25 -2.078125 C 4.789062 -2.179688 5.363281 -2.234375 5.96875 -2.234375 C 6.570312 -2.234375 7.140625 -2.179688 7.671875 -2.078125 C 8.203125 -1.984375 8.671875 -1.84375 9.078125 -1.65625 C 9.484375 -1.476562 9.796875 -1.269531 10.015625 -1.03125 C 10.242188 -0.789062 10.359375 -0.539062 10.359375 -0.28125 Z M 9.03125 -0.28125 C 9.03125 -0.507812 8.894531 -0.710938 8.625 -0.890625 C 8.351562 -1.066406 7.984375 -1.207031 7.515625 -1.3125 C 7.046875 -1.425781 6.53125 -1.484375 5.96875 -1.484375 C 5.394531 -1.484375 4.875 -1.425781 4.40625 -1.3125 C 3.945312 -1.207031 3.578125 -1.066406 3.296875 -0.890625 C 3.023438 -0.710938 2.890625 -0.507812 2.890625 -0.28125 C 2.890625 -0.0507812 3.023438 0.148438 3.296875 0.328125 C 3.578125 0.515625 3.945312 0.660156 4.40625 0.765625 C 4.875 0.878906 5.394531 0.9375 5.96875 0.9375 C 6.53125 0.9375 7.046875 0.878906 7.515625 0.765625 C 7.984375 0.660156 8.351562 0.515625 8.625 0.328125 C 8.894531 0.148438 9.03125 -0.0507812 9.03125 -0.28125 Z M 9.03125 -0.28125 "/></g></g></g><g fill="#ffffff" fill-opacity="1"><g transform="translate(269.334848, 110.987115)"><g><path d="M 9.15625 -6.265625 L 2.765625 -6.265625 L 2.765625 -4.609375 L 9.15625 -4.609375 Z M 10.359375 -8.21875 L 10.359375 -3.84375 L 1.5625 -3.84375 L 1.5625 -8.21875 L 2.765625 -8.21875 L 2.765625 -7 L 9.15625 -7 L 9.15625 -8.21875 Z M 11.25 -2.546875 L 11.25 -1.78125 L 6.5625 -1.78125 L 6.5625 1.3125 L 5.359375 1.3125 L 5.359375 -1.78125 L 0.65625 -1.78125 L 0.65625 -2.546875 Z M 11.25 -2.546875 "/></g></g></g><g fill="#ffffff" fill-opacity="1"><g transform="translate(285.539799, 110.987115)"><g/></g></g><g fill="#ffffff" fill-opacity="1"><g transform="translate(293.400093, 110.987115)"><g><path d="M 10.3125 -5.625 L 10.3125 1.3125 L 9.125 1.3125 L 9.125 -1.53125 L 1.671875 -1.53125 L 1.671875 -2.28125 L 9.109375 -2.28125 L 9.109375 -8.21875 L 10.3125 -8.21875 L 10.3125 -6.390625 L 12.09375 -6.390625 L 12.09375 -5.625 Z M 0.90625 -8.21875 L 6.765625 -8.21875 C 6.734375 -7.351562 6.554688 -6.617188 6.234375 -6.015625 C 5.921875 -5.410156 5.484375 -4.921875 4.921875 -4.546875 C 4.367188 -4.179688 3.726562 -3.910156 3 -3.734375 C 2.269531 -3.554688 1.488281 -3.460938 0.65625 -3.453125 L 0.65625 -4.203125 C 1.46875 -4.210938 2.164062 -4.320312 2.75 -4.53125 C 3.332031 -4.75 3.8125 -5.015625 4.1875 -5.328125 C 4.5625 -5.648438 4.835938 -6 5.015625 -6.375 C 5.191406 -6.75 5.28125 -7.113281 5.28125 -7.46875 L 0.90625 -7.46875 Z M 0.90625 -8.21875 "/></g></g></g><g fill="#ffffff" fill-opacity="1"><g transform="translate(309.605043, 110.987115)"><g><path d="M 1.71875 -5.25 L 1.71875 -6.640625 L 3.015625 -6.640625 L 3.015625 -5.25 Z M 1.71875 -0.703125 L 1.71875 -2.09375 L 3.015625 -2.09375 L 3.015625 -0.703125 Z M 1.71875 -0.703125 "/></g></g></g><g fill="#ffffff" fill-opacity="1"><g transform="translate(318.657436, 110.987115)"><g><path d="M 6.796875 -8.3125 C 6.5625 -8.703125 6.09375 -9.265625 5.625 -9.6875 L 5.015625 -9.3125 C 5.46875 -8.890625 5.9375 -8.296875 6.140625 -7.890625 Z M 1.984375 -4.34375 C 2 -4.640625 2 -4.90625 2 -5.1875 L 2 -6.078125 L 3.4375 -6.078125 L 3.4375 -4.34375 Z M 3.4375 -8.59375 L 3.4375 -6.859375 L 2 -6.859375 L 2 -8.59375 Z M 11.34375 -5.15625 L 11.34375 -5.90625 L 7.546875 -5.90625 C 7.703125 -6.25 7.828125 -6.625 7.9375 -7.015625 L 10.828125 -7.015625 L 10.828125 -7.765625 L 9.46875 -7.765625 C 9.90625 -8.21875 10.296875 -8.84375 10.609375 -9.484375 L 9.890625 -9.6875 C 9.640625 -9.1875 9.234375 -8.546875 8.78125 -8.125 C 8.921875 -8.03125 9.125 -7.890625 9.28125 -7.765625 L 8.109375 -7.765625 C 8.234375 -8.40625 8.328125 -9.125 8.40625 -9.890625 L 7.578125 -9.953125 C 7.515625 -9.140625 7.421875 -8.421875 7.3125 -7.765625 L 4.96875 -7.765625 L 4.96875 -7.015625 L 7.125 -7.015625 C 6.984375 -6.609375 6.84375 -6.25 6.6875 -5.90625 L 4.5 -5.90625 L 4.5 -5.15625 L 6.21875 -5.15625 C 5.734375 -4.453125 5.078125 -3.90625 4.234375 -3.484375 L 4.234375 -9.40625 L 1.234375 -9.40625 L 1.234375 -5.1875 C 1.234375 -3.453125 1.1875 -1.109375 0.515625 0.5625 C 0.71875 0.625 1.046875 0.828125 1.203125 0.953125 C 1.71875 -0.3125 1.90625 -2.03125 1.96875 -3.546875 L 3.4375 -3.546875 L 3.4375 -0.171875 C 3.4375 -0.03125 3.390625 0.03125 3.25 0.03125 C 3.125 0.03125 2.71875 0.03125 2.25 0.03125 C 2.359375 0.25 2.46875 0.625 2.484375 0.828125 C 3.1875 0.84375 3.59375 0.828125 3.859375 0.671875 C 4.15625 0.53125 4.234375 0.28125 4.234375 -0.171875 L 4.234375 -3.28125 C 4.40625 -3.109375 4.578125 -2.890625 4.65625 -2.78125 C 4.90625 -2.890625 5.109375 -3.03125 5.3125 -3.171875 L 5.3125 -2.46875 L 6.921875 -2.46875 C 6.609375 -1.234375 5.96875 -0.328125 4.484375 0.234375 C 4.65625 0.390625 4.890625 0.703125 5 0.90625 C 6.71875 0.203125 7.4375 -0.9375 7.765625 -2.46875 L 9.5 -2.46875 C 9.40625 -0.859375 9.28125 -0.21875 9.125 -0.03125 C 9.03125 0.078125 8.921875 0.078125 8.75 0.078125 C 8.5625 0.078125 8.078125 0.078125 7.5625 0.03125 C 7.671875 0.234375 7.765625 0.546875 7.78125 0.78125 C 8.328125 0.8125 8.828125 0.8125 9.125 0.78125 C 9.421875 0.765625 9.640625 0.671875 9.8125 0.484375 C 10.078125 0.171875 10.21875 -0.671875 10.34375 -2.84375 C 10.359375 -2.984375 10.375 -3.21875 10.375 -3.21875 L 7.90625 -3.21875 C 7.953125 -3.625 8 -4.046875 8.015625 -4.5 L 7.203125 -4.5 C 7.171875 -4.046875 7.125 -3.609375 7.0625 -3.21875 L 5.40625 -3.21875 C 6.15625 -3.75 6.734375 -4.375 7.171875 -5.15625 L 8.53125 -5.15625 C 9.109375 -4.25 10.0625 -3.375 11 -2.90625 C 11.125 -3.09375 11.359375 -3.390625 11.546875 -3.546875 C 10.75 -3.859375 9.9375 -4.484375 9.390625 -5.15625 Z M 11.34375 -5.15625 "/></g></g></g><g fill="#ffffff" fill-opacity="1"><g transform="translate(334.862384, 110.987115)"><g><path d="M 9.15625 -6.609375 L 2.765625 -6.609375 L 2.765625 -5.25 L 9.15625 -5.25 Z M 10.359375 -8.21875 L 10.359375 -4.5 L 1.5625 -4.5 L 1.5625 -8.21875 L 2.765625 -8.21875 L 2.765625 -7.3125 L 9.15625 -7.3125 L 9.15625 -8.21875 Z M 10.359375 -1.515625 L 10.359375 1.3125 L 9.15625 1.3125 L 9.15625 -0.75 L 1.5625 -0.75 L 1.5625 -1.515625 L 5.359375 -1.515625 L 5.359375 -2.75 L 0.65625 -2.75 L 0.65625 -3.515625 L 11.25 -3.515625 L 11.25 -2.75 L 6.5625 -2.75 L 6.5625 -1.515625 Z M 10.359375 -1.515625 "/></g></g></g><g fill="#ffffff" fill-opacity="1"><g transform="translate(351.067334, 110.987115)"><g><path d="M 7.015625 -5.953125 C 7.015625 -5.484375 6.867188 -5.054688 6.578125 -4.671875 C 6.296875 -4.285156 5.914062 -3.984375 5.4375 -3.765625 C 4.957031 -3.546875 4.425781 -3.4375 3.84375 -3.4375 C 3.25 -3.4375 2.710938 -3.546875 2.234375 -3.765625 C 1.753906 -3.984375 1.367188 -4.285156 1.078125 -4.671875 C 0.796875 -5.054688 0.65625 -5.484375 0.65625 -5.953125 C 0.65625 -6.421875 0.796875 -6.84375 1.078125 -7.21875 C 1.367188 -7.59375 1.753906 -7.894531 2.234375 -8.125 C 2.710938 -8.351562 3.25 -8.46875 3.84375 -8.46875 C 4.425781 -8.46875 4.957031 -8.351562 5.4375 -8.125 C 5.914062 -7.894531 6.296875 -7.59375 6.578125 -7.21875 C 6.867188 -6.84375 7.015625 -6.421875 7.015625 -5.953125 Z M 10.3125 -5.78125 L 10.3125 1.3125 L 9.125 1.3125 L 9.125 -1.53125 L 1.671875 -1.53125 L 1.671875 -2.28125 L 9.125 -2.28125 L 9.125 -8.21875 L 10.3125 -8.21875 L 10.3125 -6.546875 L 12.09375 -6.546875 L 12.09375 -5.78125 Z M 5.796875 -5.953125 C 5.796875 -6.285156 5.707031 -6.582031 5.53125 -6.84375 C 5.351562 -7.101562 5.117188 -7.3125 4.828125 -7.46875 C 4.535156 -7.625 4.207031 -7.703125 3.84375 -7.703125 C 3.476562 -7.703125 3.148438 -7.625 2.859375 -7.46875 C 2.566406 -7.3125 2.332031 -7.101562 2.15625 -6.84375 C 1.976562 -6.582031 1.890625 -6.285156 1.890625 -5.953125 C 1.890625 -5.617188 1.976562 -5.316406 2.15625 -5.046875 C 2.332031 -4.785156 2.566406 -4.578125 2.859375 -4.421875 C 3.148438 -4.265625 3.476562 -4.1875 3.84375 -4.1875 C 4.207031 -4.1875 4.535156 -4.265625 4.828125 -4.421875 C 5.117188 -4.578125 5.351562 -4.785156 5.53125 -5.046875 C 5.707031 -5.316406 5.796875 -5.617188 5.796875 -5.953125 Z M 5.796875 -5.953125 "/></g></g></g></svg>